<svg xmlns="http://www.w3.org/2000/svg" xmlns:xlink="http://www.w3.org/1999/xlink" width="48" zoomAndPan="magnify" viewBox="0 0 36 36.000001" height="48" preserveAspectRatio="xMidYMid meet" version="1.0"><defs><g/><clipPath id="id1"><path d="M 0.488281 0 L 35.511719 0 L 35.511719 35.027344 L 0.488281 35.027344 Z M 0.488281 0 " clip-rule="nonzero"/></clipPath><clipPath id="id2"><path d="M 8 0 L 35.511719 0 L 35.511719 35.027344 L 8 35.027344 Z M 8 0 " clip-rule="nonzero"/></clipPath></defs><g clip-path="url(#id1)"><path fill="#2a2a2a" d="M 18 0 C 8.328125 0 0.488281 7.839844 0.488281 17.511719 C 0.488281 27.1875 8.328125 35.027344 18 35.027344 C 27.671875 35.027344 35.511719 27.1875 35.511719 17.511719 C 35.511719 7.839844 27.671875 0 18 0 " fill-opacity="1" fill-rule="nonzero"/></g><g clip-path="url(#id2)"><g fill="#892cdc" fill-opacity="1"><g transform="translate(37.535394, 0.355748)"><g><path d="M -19.234375 -0.328125 C -15.691406 -0.328125 -12.617188 0.460938 -10.015625 2.046875 C -7.421875 3.640625 -5.4375 5.765625 -4.0625 8.421875 C -2.695312 11.085938 -2.015625 14.023438 -2.015625 17.234375 C -2.015625 20.628906 -2.75 23.664062 -4.21875 26.34375 C -5.695312 29.019531 -7.773438 31.113281 -10.453125 32.625 C -13.140625 34.132812 -16.175781 34.890625 -19.5625 34.890625 C -21.09375 34.890625 -22.519531 34.722656 -23.84375 34.390625 C -25.164062 34.066406 -26.257812 33.691406 -27.125 33.265625 C -28 32.847656 -28.578125 32.5 -28.859375 32.21875 L -26.578125 27.5625 C -24.671875 29.238281 -22.191406 30.078125 -19.140625 30.078125 C -16.992188 30.078125 -15.046875 29.546875 -13.296875 28.484375 C -11.554688 27.429688 -10.1875 25.921875 -9.1875 23.953125 C -8.195312 21.992188 -7.703125 19.722656 -7.703125 17.140625 C -7.703125 14.773438 -8.144531 12.625 -9.03125 10.6875 C -9.925781 8.757812 -11.226562 7.234375 -12.9375 6.109375 C -14.644531 4.992188 -16.6875 4.4375 -19.0625 4.4375 C -21.800781 4.4375 -24.445312 5.210938 -27 6.765625 L -28.53125 2.328125 C -27.851562 1.710938 -26.601562 1.113281 -24.78125 0.53125 C -22.957031 -0.0390625 -21.109375 -0.328125 -19.234375 -0.328125 Z M -19.234375 -0.328125 "/></g></g></g></g><g fill="#ffffff" fill-opacity="1"><g transform="translate(5.023929, 24.267115)"><g><path d="M 7.640625 -16.21875 L 15.4375 0 L 12.609375 0 L 11.21875 -3.171875 L 3.796875 -3.171875 L 2.40625 0 L -0.359375 0 L 7.40625 -16.21875 Z M 6.546875 -9.3125 L 4.78125 -5.390625 L 10.25 -5.390625 L 8.5 -9.296875 L 7.5625 -11.515625 L 7.515625 -11.515625 Z M 6.546875 -9.3125 "/></g></g></g><g fill="#ffffff" fill-opacity="1"><g transform="translate(20.111201, 24.267115)"><g><path d="M 1.5 -10.109375 L 3.875 -10.109375 L 3.875 -8.125 C 4.113281 -8.800781 4.492188 -9.34375 5.015625 -9.75 C 5.546875 -10.164062 6.148438 -10.375 6.828125 -10.375 C 7.296875 -10.375 7.617188 -10.332031 7.796875 -10.25 L 7.46875 -7.84375 C 7.332031 -7.925781 7.046875 -7.96875 6.609375 -7.96875 C 5.921875 -7.96875 5.289062 -7.75 4.71875 -7.3125 C 4.15625 -6.875 3.875 -6.171875 3.875 -5.203125 L 3.875 0 L 1.5 0 Z M 1.5 -10.109375 "/></g></g></g></svg>